<svg xmlns="http://www.w3.org/2000/svg" xmlns:xlink="http://www.w3.org/1999/xlink" width="1080" zoomAndPan="magnify" viewBox="0 0 810 809.999993" height="1080" preserveAspectRatio="xMidYMid meet" version="1.0"><path fill="#2c3f75" d="M 553.089844 499.363281 L 256.910156 499.363281 L 256.910156 283.960938 L 429.644531 283.960938 C 433.363281 283.960938 436.378906 280.945312 436.378906 277.230469 C 436.378906 273.511719 433.363281 270.496094 429.644531 270.496094 L 250.179688 270.496094 C 246.464844 270.496094 243.449219 273.511719 243.449219 277.230469 L 243.449219 506.09375 C 243.449219 509.808594 246.464844 512.824219 250.179688 512.824219 L 559.820312 512.824219 C 563.535156 512.824219 566.550781 509.808594 566.550781 506.09375 L 566.550781 277.230469 C 566.550781 273.511719 563.535156 270.496094 559.820312 270.496094 C 556.105469 270.496094 553.089844 273.511719 553.089844 277.230469 Z M 553.089844 499.363281 " fill-opacity="1" fill-rule="nonzero"/><path fill="#2c3f75" d="M 250.179688 485.898438 L 559.820312 485.898438 C 563.535156 485.898438 566.550781 482.882812 566.550781 479.167969 C 566.550781 475.453125 563.535156 472.4375 559.820312 472.4375 L 250.179688 472.4375 C 246.464844 472.4375 243.449219 475.453125 243.449219 479.167969 C 243.449219 482.882812 246.464844 485.898438 250.179688 485.898438 Z M 250.179688 485.898438 " fill-opacity="1" fill-rule="nonzero"/><path fill="#2c3f75" d="M 344.417969 553.210938 L 465.582031 553.210938 C 469.296875 553.210938 472.3125 550.199219 472.3125 546.480469 C 472.3125 542.765625 469.296875 539.75 465.582031 539.75 L 344.417969 539.75 C 340.703125 539.75 337.6875 542.765625 337.6875 546.480469 C 337.6875 550.199219 340.703125 553.210938 344.417969 553.210938 Z M 344.417969 553.210938 " fill-opacity="1" fill-rule="nonzero"/><path fill="#2c3f75" d="M 364.261719 548.621094 L 377.722656 508.230469 C 378.917969 504.691406 376.988281 500.871094 373.480469 499.710938 C 369.941406 498.519531 366.121094 500.449219 364.960938 503.953125 L 351.5 544.34375 C 350.308594 547.882812 352.238281 551.703125 355.742188 552.863281 C 359.285156 554.054688 363.105469 552.125 364.261719 548.621094 Z M 364.261719 548.621094 " fill-opacity="1" fill-rule="nonzero"/><path fill="#2c3f75" d="M 445.738281 548.621094 L 432.277344 508.230469 C 431.082031 504.691406 433.011719 500.871094 436.519531 499.710938 C 440.058594 498.519531 443.878906 500.449219 445.039062 503.953125 L 458.5 544.34375 C 459.691406 547.882812 457.761719 551.703125 454.257812 552.863281 C 450.714844 554.054688 446.894531 552.125 445.738281 548.621094 Z M 445.738281 548.621094 " fill-opacity="1" fill-rule="nonzero"/><path fill="#2c3f75" d="M 531.28125 290.515625 L 393.535156 411.46875 C 392.238281 412.589844 386.101562 403.933594 379.265625 397.199219 C 371.835938 389.875 363.769531 384.335938 364.996094 382.933594 L 485.949219 245.183594 C 498.433594 231.125 519.433594 230.496094 532.683594 243.78125 C 546.007812 257.070312 545.339844 278.035156 531.28125 290.515625 Z M 523.183594 253.285156 C 515.367188 245.5 503.375 245.851562 496.046875 254.089844 L 379.265625 387.070312 L 389.398438 397.199219 L 522.34375 280.453125 C 530.617188 273.09375 531 261.101562 523.183594 253.285156 Z M 523.183594 253.285156 " fill-opacity="1" fill-rule="nonzero"/><path fill="#2c3f75" d="M 307.222656 444.214844 C 303.1875 440.953125 304.207031 434.539062 309.042969 432.679688 C 317.703125 429.382812 322.226562 423.25 328.328125 409.15625 C 333.796875 396.535156 335.304688 393.589844 339.582031 389.277344 C 352.726562 376.128906 374.042969 376.128906 387.191406 389.277344 C 400.335938 402.425781 400.335938 423.738281 387.191406 436.886719 C 369.484375 454.558594 330.289062 462.726562 307.222656 444.214844 Z M 377.652344 427.351562 C 385.542969 419.464844 385.542969 406.703125 377.652344 398.8125 C 369.765625 390.925781 357.003906 390.925781 349.117188 398.8125 C 346.59375 401.335938 345.257812 403.898438 340.703125 414.484375 C 335.757812 425.914062 331.304688 433.523438 325.03125 438.816406 C 342.488281 444.949219 366.539062 438.5 377.652344 427.351562 Z M 377.652344 427.351562 " fill-opacity="1" fill-rule="nonzero"/><path fill="#2c3f75" d="M 393.011719 364 L 412.433594 383.316406 C 415.0625 385.945312 419.304688 385.945312 421.933594 383.316406 C 424.5625 380.6875 424.5625 376.410156 421.933594 373.78125 L 402.511719 354.464844 C 399.882812 351.835938 395.605469 351.871094 392.976562 354.5 C 390.34375 357.128906 390.378906 361.371094 393.011719 364 Z M 393.011719 364 " fill-opacity="1" fill-rule="nonzero"/></svg>