<svg xmlns="http://www.w3.org/2000/svg" xmlns:xlink="http://www.w3.org/1999/xlink" width="1080" zoomAndPan="magnify" viewBox="0 0 810 809.999993" height="1080" preserveAspectRatio="xMidYMid meet" version="1.0"><defs><clipPath id="e6ef5e8fc4"><path d="M 267.945312 185.710938 L 515 185.710938 L 515 624.460938 L 267.945312 624.460938 Z M 267.945312 185.710938 " clip-rule="nonzero"/></clipPath><clipPath id="b9a08ab5a1"><path d="M 377 377 L 541.695312 377 L 541.695312 543 L 377 543 Z M 377 377 " clip-rule="nonzero"/></clipPath></defs><path fill="#2c3f75" d="M 363.878906 596.871094 L 418.699219 596.871094 C 422.484375 596.871094 425.554688 593.800781 425.554688 590.015625 C 425.554688 586.234375 422.484375 583.164062 418.699219 583.164062 L 363.878906 583.164062 C 360.097656 583.164062 357.027344 586.234375 357.027344 590.015625 C 357.027344 593.800781 360.097656 596.871094 363.878906 596.871094 Z M 363.878906 596.871094 " fill-opacity="1" fill-rule="nonzero"/><path fill="#2c3f75" d="M 370.734375 219.980469 C 370.734375 220.429688 370.6875 220.875 370.601562 221.316406 C 370.511719 221.757812 370.382812 222.1875 370.210938 222.601562 C 370.039062 223.019531 369.828125 223.414062 369.578125 223.785156 C 369.328125 224.160156 369.042969 224.507812 368.726562 224.824219 C 368.40625 225.144531 368.0625 225.425781 367.6875 225.675781 C 367.3125 225.925781 366.917969 226.136719 366.503906 226.3125 C 366.085938 226.484375 365.65625 226.613281 365.21875 226.699219 C 364.777344 226.789062 364.328125 226.832031 363.878906 226.832031 C 363.429688 226.832031 362.984375 226.789062 362.542969 226.699219 C 362.101562 226.613281 361.671875 226.484375 361.257812 226.3125 C 360.84375 226.136719 360.445312 225.925781 360.074219 225.675781 C 359.699219 225.425781 359.351562 225.144531 359.035156 224.824219 C 358.714844 224.507812 358.433594 224.160156 358.183594 223.785156 C 357.933594 223.414062 357.722656 223.019531 357.550781 222.601562 C 357.375 222.1875 357.246094 221.757812 357.160156 221.316406 C 357.070312 220.875 357.027344 220.429688 357.027344 219.980469 C 357.027344 219.53125 357.070312 219.085938 357.160156 218.644531 C 357.246094 218.203125 357.375 217.773438 357.550781 217.359375 C 357.722656 216.941406 357.933594 216.546875 358.183594 216.171875 C 358.433594 215.796875 358.714844 215.453125 359.035156 215.132812 C 359.351562 214.816406 359.699219 214.53125 360.074219 214.28125 C 360.445312 214.03125 360.84375 213.820312 361.257812 213.648438 C 361.671875 213.476562 362.101562 213.347656 362.542969 213.257812 C 362.984375 213.171875 363.429688 213.128906 363.878906 213.128906 C 364.328125 213.128906 364.777344 213.171875 365.21875 213.257812 C 365.65625 213.347656 366.085938 213.476562 366.503906 213.648438 C 366.917969 213.820312 367.3125 214.03125 367.6875 214.28125 C 368.0625 214.53125 368.40625 214.816406 368.726562 215.132812 C 369.042969 215.453125 369.328125 215.796875 369.578125 216.171875 C 369.828125 216.546875 370.039062 216.941406 370.210938 217.359375 C 370.382812 217.773438 370.511719 218.203125 370.601562 218.644531 C 370.6875 219.085938 370.734375 219.53125 370.734375 219.980469 Z M 370.734375 219.980469 " fill-opacity="1" fill-rule="nonzero"/><path fill="#2c3f75" d="M 398.144531 219.980469 C 398.144531 220.429688 398.097656 220.875 398.011719 221.316406 C 397.921875 221.757812 397.792969 222.1875 397.621094 222.601562 C 397.449219 223.019531 397.238281 223.414062 396.988281 223.785156 C 396.738281 224.160156 396.453125 224.507812 396.136719 224.824219 C 395.816406 225.144531 395.472656 225.425781 395.097656 225.675781 C 394.722656 225.925781 394.328125 226.136719 393.914062 226.3125 C 393.496094 226.484375 393.066406 226.613281 392.628906 226.699219 C 392.1875 226.789062 391.738281 226.832031 391.289062 226.832031 C 390.839844 226.832031 390.394531 226.789062 389.953125 226.699219 C 389.511719 226.613281 389.082031 226.484375 388.667969 226.3125 C 388.253906 226.136719 387.855469 225.925781 387.484375 225.675781 C 387.109375 225.425781 386.761719 225.144531 386.445312 224.824219 C 386.125 224.507812 385.84375 224.160156 385.59375 223.785156 C 385.34375 223.414062 385.132812 223.019531 384.960938 222.601562 C 384.785156 222.1875 384.65625 221.757812 384.570312 221.316406 C 384.480469 220.875 384.4375 220.429688 384.4375 219.980469 C 384.4375 219.53125 384.480469 219.085938 384.570312 218.644531 C 384.65625 218.203125 384.785156 217.773438 384.960938 217.359375 C 385.132812 216.941406 385.34375 216.546875 385.59375 216.171875 C 385.84375 215.796875 386.125 215.453125 386.445312 215.132812 C 386.761719 214.816406 387.109375 214.53125 387.484375 214.28125 C 387.855469 214.03125 388.253906 213.820312 388.667969 213.648438 C 389.082031 213.476562 389.511719 213.347656 389.953125 213.257812 C 390.394531 213.171875 390.839844 213.128906 391.289062 213.128906 C 391.738281 213.128906 392.1875 213.171875 392.628906 213.257812 C 393.066406 213.347656 393.496094 213.476562 393.914062 213.648438 C 394.328125 213.820312 394.722656 214.03125 395.097656 214.28125 C 395.472656 214.53125 395.816406 214.816406 396.136719 215.132812 C 396.453125 215.453125 396.738281 215.796875 396.988281 216.171875 C 397.238281 216.546875 397.449219 216.941406 397.621094 217.359375 C 397.792969 217.773438 397.921875 218.203125 398.011719 218.644531 C 398.097656 219.085938 398.144531 219.53125 398.144531 219.980469 Z M 398.144531 219.980469 " fill-opacity="1" fill-rule="nonzero"/><path fill="#2c3f75" d="M 425.554688 219.980469 C 425.554688 220.429688 425.507812 220.875 425.421875 221.316406 C 425.332031 221.757812 425.203125 222.1875 425.03125 222.601562 C 424.859375 223.019531 424.648438 223.414062 424.398438 223.785156 C 424.148438 224.160156 423.863281 224.507812 423.546875 224.824219 C 423.226562 225.144531 422.882812 225.425781 422.507812 225.675781 C 422.132812 225.925781 421.738281 226.136719 421.324219 226.3125 C 420.90625 226.484375 420.476562 226.613281 420.039062 226.699219 C 419.597656 226.789062 419.148438 226.832031 418.699219 226.832031 C 418.25 226.832031 417.804688 226.789062 417.363281 226.699219 C 416.921875 226.613281 416.492188 226.484375 416.078125 226.3125 C 415.664062 226.136719 415.265625 225.925781 414.894531 225.675781 C 414.519531 225.425781 414.171875 225.144531 413.855469 224.824219 C 413.535156 224.507812 413.253906 224.160156 413.003906 223.785156 C 412.753906 223.414062 412.542969 223.019531 412.371094 222.601562 C 412.195312 222.1875 412.066406 221.757812 411.980469 221.316406 C 411.890625 220.875 411.847656 220.429688 411.847656 219.980469 C 411.847656 219.53125 411.890625 219.085938 411.980469 218.644531 C 412.066406 218.203125 412.195312 217.773438 412.371094 217.359375 C 412.542969 216.941406 412.753906 216.546875 413.003906 216.171875 C 413.253906 215.796875 413.535156 215.453125 413.855469 215.132812 C 414.171875 214.816406 414.519531 214.53125 414.894531 214.28125 C 415.265625 214.03125 415.664062 213.820312 416.078125 213.648438 C 416.492188 213.476562 416.921875 213.347656 417.363281 213.257812 C 417.804688 213.171875 418.25 213.128906 418.699219 213.128906 C 419.148438 213.128906 419.597656 213.171875 420.039062 213.257812 C 420.476562 213.347656 420.90625 213.476562 421.324219 213.648438 C 421.738281 213.820312 422.132812 214.03125 422.507812 214.28125 C 422.882812 214.53125 423.226562 214.816406 423.546875 215.132812 C 423.863281 215.453125 424.148438 215.796875 424.398438 216.171875 C 424.648438 216.546875 424.859375 216.941406 425.03125 217.359375 C 425.203125 217.773438 425.332031 218.203125 425.421875 218.644531 C 425.507812 219.085938 425.554688 219.53125 425.554688 219.980469 Z M 425.554688 219.980469 " fill-opacity="1" fill-rule="nonzero"/><g clip-path="url(#e6ef5e8fc4)"><path fill="#2c3f75" d="M 487.464844 185.71875 L 295.117188 185.71875 C 280.105469 185.71875 267.945312 197.988281 267.945312 213.128906 L 267.945312 596.871094 C 267.945312 612.007812 280.105469 624.28125 295.117188 624.28125 L 487.464844 624.28125 C 502.46875 624.28125 514.636719 612.007812 514.636719 596.871094 L 514.636719 555.753906 L 281.648438 555.753906 L 281.648438 254.242188 L 500.929688 254.242188 L 500.929688 363.882812 L 514.636719 363.882812 L 514.636719 213.128906 C 514.636719 197.988281 502.46875 185.71875 487.464844 185.71875 Z M 500.929688 569.460938 L 500.929688 596.871094 C 500.929688 604.429688 494.886719 610.574219 487.464844 610.574219 L 295.117188 610.574219 C 287.691406 610.574219 281.648438 604.429688 281.648438 596.871094 L 281.648438 569.460938 Z M 500.929688 240.539062 L 281.648438 240.539062 L 281.648438 213.128906 C 281.648438 205.570312 287.691406 199.421875 295.117188 199.421875 L 487.464844 199.421875 C 494.886719 199.421875 500.929688 205.570312 500.929688 213.128906 Z M 500.929688 240.539062 " fill-opacity="1" fill-rule="nonzero"/></g><g clip-path="url(#b9a08ab5a1)"><path fill="#2c3f75" d="M 542.046875 405 C 542.046875 389.859375 529.773438 377.589844 514.636719 377.589844 L 404.996094 377.589844 C 389.859375 377.589844 377.585938 389.859375 377.585938 405 L 377.585938 514.640625 C 377.585938 529.777344 389.859375 542.050781 404.996094 542.050781 L 514.636719 542.050781 C 529.773438 542.050781 542.046875 529.777344 542.046875 514.640625 Z M 528.339844 514.640625 C 528.339844 522.199219 522.195312 528.34375 514.636719 528.34375 L 404.996094 528.34375 C 397.4375 528.34375 391.289062 522.199219 391.289062 514.640625 L 391.289062 405 C 391.289062 397.441406 397.4375 391.292969 404.996094 391.292969 L 514.636719 391.292969 C 522.195312 391.292969 528.339844 397.441406 528.339844 405 Z M 528.339844 514.640625 " fill-opacity="1" fill-rule="nonzero"/></g><path fill="#2c3f75" d="M 446.59375 363.882812 C 461.460938 363.882812 473.519531 351.824219 473.519531 336.953125 L 473.519531 294.875 C 473.519531 280.007812 461.460938 267.949219 446.59375 267.949219 L 404.511719 267.949219 C 389.644531 267.949219 377.585938 280.007812 377.585938 294.875 L 377.585938 336.953125 C 377.585938 351.824219 389.644531 363.882812 404.511719 363.882812 Z M 391.289062 336.953125 L 391.289062 294.875 C 391.289062 287.585938 397.222656 281.652344 404.511719 281.652344 L 446.59375 281.652344 C 453.882812 281.652344 459.816406 287.585938 459.816406 294.875 L 459.816406 336.953125 C 459.816406 344.246094 453.882812 350.179688 446.59375 350.179688 L 404.511719 350.179688 C 397.222656 350.179688 391.289062 344.246094 391.289062 336.953125 Z M 391.289062 336.953125 " fill-opacity="1" fill-rule="nonzero"/><path fill="#2c3f75" d="M 314.585938 377.589844 C 303.96875 377.589844 295.355469 386.199219 295.355469 396.824219 L 295.355469 426.878906 C 295.355469 437.5 303.96875 446.113281 314.585938 446.113281 L 344.648438 446.113281 C 355.265625 446.113281 363.878906 437.5 363.878906 426.878906 L 363.878906 396.824219 C 363.878906 386.199219 355.265625 377.589844 344.648438 377.589844 Z M 350.175781 396.824219 L 350.175781 426.878906 C 350.175781 429.925781 347.695312 432.410156 344.648438 432.410156 L 314.585938 432.410156 C 311.539062 432.410156 309.058594 429.925781 309.058594 426.878906 L 309.058594 396.824219 C 309.058594 393.777344 311.539062 391.292969 314.585938 391.292969 L 344.648438 391.292969 C 347.695312 391.292969 350.175781 393.777344 350.175781 396.824219 Z M 350.175781 396.824219 " fill-opacity="1" fill-rule="nonzero"/><path fill="#2c3f75" d="M 505.191406 426.066406 C 491.964844 431.476562 479.882812 440.320312 470.839844 447.425781 C 458.3125 457.265625 447.480469 468.269531 440.929688 475.367188 C 433.417969 462.035156 427.421875 454.410156 416.226562 445.109375 C 413.3125 442.695312 408.996094 443.09375 406.578125 446 C 404.160156 448.910156 404.558594 453.234375 407.46875 455.648438 C 419.285156 465.464844 424.105469 472.589844 433.511719 490.425781 C 434.578125 492.449219 436.585938 493.804688 438.855469 494.042969 C 439.097656 494.066406 439.335938 494.082031 439.574219 494.082031 C 441.59375 494.082031 443.527344 493.183594 444.839844 491.617188 C 444.988281 491.429688 460.351562 473.09375 479.304688 458.203125 C 487.648438 451.652344 498.71875 443.519531 510.375 438.753906 C 513.878906 437.316406 515.558594 433.320312 514.128906 429.816406 C 512.695312 426.316406 508.691406 424.644531 505.191406 426.066406 Z M 505.191406 426.066406 " fill-opacity="1" fill-rule="nonzero"/></svg>