<svg xmlns="http://www.w3.org/2000/svg" xmlns:xlink="http://www.w3.org/1999/xlink" width="1080" zoomAndPan="magnify" viewBox="0 0 810 809.999993" height="1080" preserveAspectRatio="xMidYMid meet" version="1.0"><defs><clipPath id="a17ce3b038"><path d="M 202.773438 209.09375 L 595 209.09375 L 595 600.59375 L 202.773438 600.59375 Z M 202.773438 209.09375 " clip-rule="nonzero"/></clipPath><clipPath id="573588253f"><path d="M 525 476.304688 L 607.023438 476.304688 L 607.023438 559 L 525 559 Z M 525 476.304688 " clip-rule="nonzero"/></clipPath></defs><path fill="#2c3f75" d="M 221.734375 446.417969 L 576.328125 446.417969 C 578.394531 434.347656 581.777344 412.988281 581.777344 404.996094 C 581.777344 397 578.394531 375.644531 576.328125 363.578125 L 221.734375 363.578125 L 216.582031 404.996094 Z M 586.714844 458.816406 L 210.78125 458.816406 L 204.089844 404.996094 L 210.78125 351.175781 L 586.714844 351.175781 L 587.632812 356.273438 C 587.902344 357.757812 594.179688 392.675781 594.179688 404.996094 C 594.179688 417.316406 587.902344 452.238281 587.632812 453.71875 L 586.714844 458.816406 " fill-opacity="1" fill-rule="nonzero"/><path fill="#2c3f75" d="M 362.945312 381.074219 L 349.078125 433.351562 L 335.601562 433.351562 L 328.289062 404.511719 L 321.378906 433.351562 L 307.324219 433.351562 L 293.4375 381.074219 L 308.535156 381.074219 L 315.847656 411.160156 L 322.980469 381.074219 L 335.578125 381.074219 L 343.339844 411.21875 L 350.664062 381.074219 L 362.945312 381.074219 " fill-opacity="1" fill-rule="nonzero"/><path fill="#2c3f75" d="M 433.523438 381.074219 L 419.65625 433.351562 L 406.175781 433.351562 L 398.863281 404.511719 L 391.957031 433.351562 L 377.90625 433.351562 L 364.015625 381.074219 L 379.113281 381.074219 L 386.425781 411.160156 L 393.558594 381.074219 L 406.160156 381.074219 L 413.917969 411.21875 L 421.238281 381.074219 L 433.523438 381.074219 " fill-opacity="1" fill-rule="nonzero"/><path fill="#2c3f75" d="M 504.101562 381.074219 L 490.238281 433.351562 L 476.757812 433.351562 L 469.445312 404.511719 L 462.539062 433.351562 L 448.484375 433.351562 L 434.59375 381.074219 L 449.695312 381.074219 L 457.003906 411.160156 L 464.140625 381.074219 L 476.734375 381.074219 L 484.496094 411.21875 L 491.820312 381.074219 L 504.101562 381.074219 " fill-opacity="1" fill-rule="nonzero"/><path fill="#2c3f75" d="M 264.136719 505.425781 C 272.207031 501.082031 289.882812 492.605469 315.699219 485.882812 C 313.0625 475.265625 310.988281 464.117188 309.445312 452.617188 L 237.65625 452.617188 C 243.351562 471.875 252.386719 489.714844 264.136719 505.425781 " fill-opacity="1" fill-rule="nonzero"/><path fill="#2c3f75" d="M 403.988281 320.5 L 403.988281 357.375 L 470.925781 357.375 C 468.894531 342.460938 465.96875 328.609375 462.296875 316.066406 C 441.246094 318.675781 421.746094 320.023438 403.988281 320.5 " fill-opacity="1" fill-rule="nonzero"/><path fill="#2c3f75" d="M 388.914062 320.703125 C 367.917969 320.703125 349.746094 319.507812 334.769531 317.890625 C 334.128906 317.820312 333.507812 317.746094 332.871094 317.675781 C 329.417969 329.792969 326.648438 343.089844 324.707031 357.375 L 391.65625 357.375 L 391.65625 320.695312 C 390.742188 320.695312 389.820312 320.703125 388.914062 320.703125 " fill-opacity="1" fill-rule="nonzero"/><path fill="#2c3f75" d="M 264.691406 303.839844 C 252.675781 319.726562 243.441406 337.820312 237.65625 357.375 L 309.4375 357.375 C 311.390625 342.808594 314.222656 328.832031 317.914062 315.75 C 290.660156 311.765625 272.570312 306.453125 264.691406 303.839844 " fill-opacity="1" fill-rule="nonzero"/><path fill="#2c3f75" d="M 330.285156 482.492188 C 332.460938 482.042969 334.671875 481.605469 336.941406 481.191406 C 354.78125 477.9375 373.089844 476.285156 391.65625 476.242188 L 391.65625 452.617188 L 324.710938 452.617188 C 326.144531 463.132812 328.007812 473.128906 330.285156 482.492188 " fill-opacity="1" fill-rule="nonzero"/><path fill="#2c3f75" d="M 331.386719 530.40625 C 326.582031 520.433594 322.425781 509.488281 318.945312 497.800781 C 296.40625 503.683594 280.296875 510.996094 272.054688 515.222656 C 294.234375 540.6875 323.941406 559.417969 357.671875 567.933594 C 347.875 558.785156 338.980469 546.175781 331.386719 530.40625 " fill-opacity="1" fill-rule="nonzero"/><path fill="#2c3f75" d="M 464.253906 530.40625 C 456.484375 546.546875 447.351562 559.371094 437.28125 568.5625 C 471.78125 560.441406 502.207031 541.65625 524.890625 515.890625 C 507.992188 509 491.710938 503.683594 476.148438 499.648438 C 472.785156 510.644531 468.808594 520.957031 464.253906 530.40625 " fill-opacity="1" fill-rule="nonzero"/><path fill="#2c3f75" d="M 333.492188 494.425781 C 346.75 539.363281 369.25 567.90625 391.65625 572.390625 L 391.65625 488.648438 C 371.734375 488.671875 354.289062 490.597656 339.773438 493.214844 C 337.632812 493.597656 335.546875 494.007812 333.492188 494.425781 " fill-opacity="1" fill-rule="nonzero"/><path fill="#2c3f75" d="M 403.988281 488.875 L 403.988281 572.390625 C 426.097656 567.964844 448.296875 540.117188 461.621094 496.203125 C 440.902344 491.75 421.597656 489.546875 403.988281 488.875 " fill-opacity="1" fill-rule="nonzero"/><path fill="#2c3f75" d="M 403.988281 237.601562 L 403.988281 308.15625 C 420.628906 307.703125 438.828125 306.472656 458.457031 304.113281 C 444.945312 265.796875 424.425781 241.695312 403.988281 237.601562 " fill-opacity="1" fill-rule="nonzero"/><path fill="#2c3f75" d="M 331.386719 279.585938 C 338.980469 263.816406 347.875 251.207031 357.671875 242.0625 C 324.484375 250.4375 295.195312 268.710938 273.132812 293.550781 C 282.300781 296.300781 298.765625 300.566406 321.597656 303.8125 C 324.484375 295.25 327.75 287.136719 331.386719 279.585938 " fill-opacity="1" fill-rule="nonzero"/><path fill="#2c3f75" d="M 336.671875 305.6875 C 351.785156 307.300781 370.253906 308.464844 391.65625 308.359375 L 391.65625 237.601562 C 370.9375 241.75 350.144531 266.460938 336.644531 305.6875 C 336.652344 305.6875 336.660156 305.6875 336.671875 305.6875 " fill-opacity="1" fill-rule="nonzero"/><path fill="#2c3f75" d="M 403.988281 476.453125 C 410.886719 476.703125 417.816406 477.160156 424.761719 477.847656 C 438.085938 479.164062 451.488281 481.3125 464.925781 484.246094 C 467.394531 474.378906 469.414062 463.792969 470.933594 452.617188 L 403.988281 452.617188 L 403.988281 476.453125 " fill-opacity="1" fill-rule="nonzero"/><path fill="#2c3f75" d="M 477.246094 314.035156 C 481.175781 327.601562 484.160156 342.171875 486.195312 357.375 L 559.878906 357.375 C 554.042969 337.660156 544.707031 319.433594 532.550781 303.453125 C 513.199219 307.988281 494.738281 311.445312 477.246094 314.035156 " fill-opacity="1" fill-rule="nonzero"/><path fill="#2c3f75" d="M 464.253906 279.585938 C 467.652344 286.636719 470.726562 294.179688 473.464844 302.125 C 489.40625 299.816406 506.195312 296.761719 523.75 292.816406 C 501.191406 267.710938 471.207031 249.414062 437.28125 241.429688 C 447.351562 250.621094 456.484375 263.449219 464.253906 279.585938 " fill-opacity="1" fill-rule="nonzero"/><path fill="#2c3f75" d="M 479.480469 487.738281 C 494.160156 491.570312 508.859375 496.371094 523.515625 502.09375 L 507.617188 459.296875 L 551.242188 475.503906 C 554.65625 468.144531 557.546875 460.5 559.882812 452.617188 L 486.210938 452.617188 C 484.574219 464.796875 482.332031 476.566406 479.480469 487.738281 " fill-opacity="1" fill-rule="nonzero"/><g clip-path="url(#a17ce3b038)"><path fill="#2c3f75" d="M 398.769531 209.09375 C 290.746094 209.09375 202.867188 296.972656 202.867188 404.996094 C 202.867188 513.019531 290.746094 600.898438 398.769531 600.898438 C 453.394531 600.898438 502.859375 578.414062 538.425781 542.230469 L 532.660156 526.699219 C 499.519531 563.125 451.769531 586.019531 398.769531 586.019531 C 315.433594 586.019531 245.113281 529.398438 224.148438 452.617188 C 220.003906 437.433594 217.746094 421.476562 217.746094 404.996094 C 217.746094 388.515625 220.003906 372.558594 224.148438 357.375 C 245.113281 280.59375 315.433594 223.972656 398.769531 223.972656 C 482.105469 223.972656 552.425781 280.59375 573.386719 357.375 C 577.535156 372.558594 579.792969 388.515625 579.792969 404.996094 C 579.792969 421.476562 577.535156 437.433594 573.386719 452.617188 C 570.804688 462.089844 567.460938 471.246094 563.441406 480.035156 L 577.46875 485.246094 C 588.515625 460.742188 594.671875 433.574219 594.671875 404.996094 C 594.671875 296.972656 506.792969 209.09375 398.769531 209.09375 " fill-opacity="1" fill-rule="nonzero"/></g><g clip-path="url(#573588253f)"><path fill="#2c3f75" d="M 607.121094 548.699219 L 576.785156 518.363281 L 600.640625 504.859375 L 525.125 476.808594 L 553.179688 552.320312 L 566.683594 528.464844 L 597.019531 558.800781 L 607.121094 548.699219 " fill-opacity="1" fill-rule="nonzero"/></g></svg>