<svg xmlns="http://www.w3.org/2000/svg" xmlns:xlink="http://www.w3.org/1999/xlink" width="1080" zoomAndPan="magnify" viewBox="0 0 810 809.999993" height="1080" preserveAspectRatio="xMidYMid meet" version="1.0"><defs><clipPath id="7a2c38a8e8"><path d="M 178.003906 192.757812 L 631.753906 192.757812 L 631.753906 617.257812 L 178.003906 617.257812 Z M 178.003906 192.757812 " clip-rule="nonzero"/></clipPath></defs><g clip-path="url(#7a2c38a8e8)"><path fill="#2c3f75" d="M 431.472656 583.175781 C 431.472656 586.972656 428.394531 590.050781 424.597656 590.050781 L 385.289062 590.050781 C 381.492188 590.050781 378.414062 586.972656 378.414062 583.175781 C 378.414062 579.382812 381.492188 576.296875 385.289062 576.296875 L 424.597656 576.296875 C 428.394531 576.296875 431.472656 579.378906 431.472656 583.175781 Z M 466.269531 595.453125 L 466.269531 385.8125 C 466.269531 381.453125 462.722656 377.90625 458.367188 377.90625 L 351.523438 377.90625 C 347.171875 377.90625 343.617188 381.453125 343.617188 385.8125 L 343.617188 595.453125 C 343.617188 599.824219 347.171875 603.359375 351.523438 603.359375 L 458.367188 603.359375 C 462.722656 603.359375 466.269531 599.824219 466.269531 595.453125 Z M 458.367188 364.152344 L 351.523438 364.152344 C 339.585938 364.152344 329.863281 373.871094 329.863281 385.8125 L 329.863281 595.453125 C 329.863281 607.40625 339.585938 617.121094 351.523438 617.121094 L 458.367188 617.121094 C 470.300781 617.121094 480.027344 607.40625 480.027344 595.453125 L 480.027344 385.8125 C 480.027344 373.871094 470.304688 364.152344 458.367188 364.152344 Z M 364.839844 248.871094 L 375.539062 248.871094 L 375.539062 284.921875 L 364.839844 284.921875 Z M 400.898438 248.871094 C 404.128906 248.871094 406.914062 246.625 407.617188 243.472656 L 410.664062 229.625 C 411.421875 226.199219 416.632812 227.34375 415.875 230.769531 L 413.730469 240.507812 C 412.789062 244.773438 416.074219 248.871094 420.445312 248.871094 L 427.015625 248.871094 C 436.964844 248.871094 445.046875 256.960938 445.046875 266.902344 C 445.046875 276.84375 436.964844 284.921875 427.015625 284.921875 L 389.300781 284.921875 L 389.300781 248.871094 Z M 362.441406 298.675781 L 427.015625 298.675781 C 444.542969 298.675781 458.804688 284.429688 458.804688 266.902344 C 458.804688 250.035156 445.601562 236.199219 428.992188 235.171875 L 429.3125 233.730469 C 431.265625 224.890625 425.65625 216.101562 416.808594 214.148438 C 407.964844 212.207031 399.183594 217.8125 397.234375 226.652344 L 395.367188 235.117188 L 362.441406 235.117188 C 356.1875 235.117188 351.085938 240.203125 351.085938 246.472656 L 351.085938 287.335938 C 351.085938 293.589844 356.183594 298.675781 362.441406 298.675781 Z M 317.867188 222.523438 L 317.867188 289.929688 C 317.867188 298.640625 324.949219 305.71875 333.660156 305.71875 L 376.835938 305.71875 C 384.714844 305.71875 391.566406 309.917969 395.164062 316.917969 L 404.945312 336.003906 L 414.722656 316.929688 C 418.328125 309.917969 425.171875 305.71875 433.050781 305.71875 L 476.234375 305.71875 C 484.945312 305.71875 492.023438 298.644531 492.023438 289.929688 L 492.023438 222.523438 C 492.023438 213.8125 484.945312 206.730469 476.234375 206.730469 L 333.660156 206.730469 C 324.949219 206.730469 317.867188 213.8125 317.867188 222.523438 Z M 333.660156 319.480469 L 376.835938 319.480469 C 379.53125 319.480469 381.695312 320.800781 382.921875 323.199219 L 398.828125 354.214844 C 401.378906 359.199219 408.511719 359.191406 411.066406 354.214844 L 426.964844 323.199219 C 428.195312 320.800781 430.355469 319.480469 433.050781 319.480469 L 476.234375 319.480469 C 492.527344 319.480469 505.777344 306.222656 505.777344 289.929688 L 505.777344 222.523438 C 505.777344 206.226562 492.527344 192.976562 476.234375 192.976562 L 333.660156 192.976562 C 317.363281 192.976562 304.113281 206.226562 304.113281 222.523438 L 304.113281 289.929688 C 304.113281 306.222656 317.363281 319.480469 333.660156 319.480469 Z M 573.742188 479.242188 C 570.371094 479.242188 567.617188 476.59375 567.425781 473.273438 L 580.0625 473.273438 C 579.871094 476.59375 577.105469 479.242188 573.742188 479.242188 Z M 554.96875 442.859375 C 554.96875 432.507812 563.390625 424.09375 573.746094 424.09375 C 584.097656 424.09375 592.519531 432.507812 592.519531 442.859375 L 592.519531 459.519531 L 554.96875 459.519531 Z M 580.617188 411.078125 L 580.617188 405.667969 C 580.617188 401.867188 577.539062 398.785156 573.746094 398.785156 C 569.949219 398.785156 566.863281 401.867188 566.863281 405.667969 L 566.863281 411.078125 C 552.214844 414.238281 541.214844 427.292969 541.214844 442.859375 L 541.214844 466.394531 C 541.214844 470.191406 544.289062 473.273438 548.097656 473.273438 L 553.660156 473.273438 C 553.851562 484.1875 562.785156 492.996094 573.746094 492.996094 C 584.695312 492.996094 593.625 484.1875 593.828125 473.273438 L 599.394531 473.273438 C 603.191406 473.273438 606.273438 470.191406 606.273438 466.394531 L 606.273438 442.859375 C 606.273438 427.289062 595.265625 414.238281 580.617188 411.078125 Z M 618.167969 492.574219 L 618.167969 399.210938 C 618.167969 394.863281 614.636719 391.332031 610.289062 391.332031 L 537.199219 391.332031 C 532.851562 391.332031 529.320312 394.863281 529.320312 399.210938 L 529.320312 428.71875 C 529.320312 435.058594 525.496094 440.636719 519.589844 442.929688 L 511.933594 445.898438 L 519.589844 448.871094 C 525.496094 451.164062 529.320312 456.726562 529.320312 463.066406 L 529.320312 492.578125 C 529.320312 496.921875 532.851562 500.464844 537.199219 500.464844 L 610.289062 500.464844 C 614.636719 500.464844 618.167969 496.921875 618.167969 492.574219 Z M 610.289062 377.574219 L 537.199219 377.574219 C 525.265625 377.574219 515.5625 387.277344 515.5625 399.207031 L 515.5625 428.714844 C 515.5625 429.402344 515.253906 429.847656 514.621094 430.097656 L 490.425781 439.480469 C 484.578125 441.746094 484.597656 450.046875 490.425781 452.308594 L 514.621094 461.691406 C 515.253906 461.933594 515.5625 462.386719 515.5625 463.066406 L 515.5625 492.574219 C 515.5625 504.507812 525.265625 514.21875 537.199219 514.21875 L 610.289062 514.21875 C 622.21875 514.21875 631.921875 504.507812 631.921875 492.574219 L 631.921875 399.207031 C 631.921875 387.277344 622.21875 377.574219 610.289062 377.574219 Z M 236.148438 469.054688 C 223.601562 462.203125 210.230469 446.355469 210.230469 433.78125 C 210.230469 422.84375 223.867188 417.835938 230.972656 425.976562 C 233.703125 429.097656 238.582031 429.109375 241.320312 425.976562 C 248.425781 417.84375 262.066406 422.828125 262.066406 433.78125 C 262.066406 446.355469 248.707031 462.203125 236.148438 469.054688 Z M 250.222656 408.1875 C 245.167969 408.1875 240.289062 409.683594 236.148438 412.40625 C 219.246094 401.277344 196.472656 413.378906 196.472656 433.78125 C 196.472656 453.492188 215.554688 475.152344 233.367188 483.011719 C 235.128906 483.792969 237.164062 483.792969 238.925781 483.011719 C 256.742188 475.148438 275.820312 453.488281 275.820312 433.78125 C 275.820312 419.667969 264.335938 408.1875 250.222656 408.1875 Z M 290.300781 448.871094 L 297.957031 445.898438 L 290.300781 442.929688 C 284.390625 440.632812 280.574219 435.058594 280.574219 428.714844 L 280.574219 399.207031 C 280.574219 394.859375 277.039062 391.332031 272.691406 391.332031 L 199.605469 391.332031 C 195.257812 391.332031 191.722656 394.859375 191.722656 399.207031 L 191.722656 492.574219 C 191.722656 496.921875 195.257812 500.464844 199.605469 500.464844 L 272.691406 500.464844 C 277.039062 500.464844 280.574219 496.921875 280.574219 492.574219 L 280.574219 463.066406 C 280.574219 456.726562 284.390625 451.15625 290.300781 448.871094 Z M 319.460938 439.480469 L 295.273438 430.097656 C 294.640625 429.847656 294.328125 429.402344 294.328125 428.714844 L 294.328125 399.207031 C 294.328125 387.277344 284.625 377.574219 272.691406 377.574219 L 199.605469 377.574219 C 187.671875 377.574219 177.96875 387.277344 177.96875 399.207031 L 177.96875 492.574219 C 177.96875 504.507812 187.671875 514.21875 199.605469 514.21875 L 272.691406 514.21875 C 284.625 514.21875 294.328125 504.507812 294.328125 492.574219 L 294.328125 463.066406 C 294.328125 462.386719 294.640625 461.9375 295.273438 461.691406 L 319.460938 452.308594 C 325.292969 450.042969 325.300781 441.738281 319.460938 439.480469 Z M 319.460938 439.480469 " fill-opacity="1" fill-rule="evenodd"/></g></svg>