<svg width="145" height="146" viewBox="0 0 145 146" fill="none" xmlns="http://www.w3.org/2000/svg">
<path d="M132.858 108.493H25.2242V29.9695H87.9974C89.3488 29.9695 90.4447 28.8702 90.4447 27.516C90.4447 26.1603 89.3488 25.061 87.9974 25.061H22.7783C21.4283 25.061 20.3324 26.1603 20.3324 27.516V110.947C20.3324 112.301 21.4283 113.4 22.7783 113.4H135.304C136.654 113.4 137.75 112.301 137.75 110.947V27.516C137.75 26.1603 136.654 25.061 135.304 25.061C133.954 25.061 132.858 26.1603 132.858 27.516V108.493Z" fill="#2C3F75"/>
<path d="M22.7783 103.585H135.304C136.654 103.585 137.75 102.485 137.75 101.131C137.75 99.7769 136.654 98.6776 135.304 98.6776H22.7783C21.4283 98.6776 20.3324 99.7769 20.3324 101.131C20.3324 102.485 21.4283 103.585 22.7783 103.585Z" fill="#2C3F75"/>
<path d="M57.0253 128.123H101.057C102.407 128.123 103.503 127.025 103.503 125.67C103.503 124.315 102.407 123.216 101.057 123.216H57.0253C55.6753 123.216 54.5794 124.315 54.5794 125.67C54.5794 127.025 55.6753 128.123 57.0253 128.123Z" fill="#2C3F75"/>
<path d="M64.2367 126.45L69.1285 111.726C69.5629 110.436 68.8617 109.043 67.5869 108.62C66.3008 108.186 64.9124 108.889 64.4908 110.166L59.599 124.891C59.166 126.181 59.8673 127.573 61.1406 127.996C62.4282 128.431 63.8165 127.727 64.2367 126.45Z" fill="#2C3F75"/>
<path d="M93.846 126.45L88.9542 111.726C88.5198 110.436 89.2211 109.043 90.4958 108.62C91.7819 108.186 93.1703 108.889 93.5919 110.166L98.4837 124.891C98.9167 126.181 98.2154 127.573 96.9421 127.996C95.6545 128.431 94.2662 127.727 93.846 126.45Z" fill="#2C3F75"/>
<path d="M124.933 32.359L74.8749 76.4518C74.4036 76.8605 72.1735 73.7049 69.6893 71.2499C66.9893 68.5799 64.0579 66.5607 64.5036 66.0495L108.459 15.8335C112.996 10.7085 120.627 10.4792 125.443 15.3223C130.285 20.1667 130.042 27.8093 124.933 32.359ZM121.99 18.7869C119.15 15.9488 114.792 16.077 112.129 19.0802L69.6893 67.5575L73.3716 71.2499L121.685 28.6908C124.692 26.008 124.831 21.6363 121.99 18.7869Z" fill="#2C3F75"/>
<path d="M43.5082 88.3892C42.0418 87.2002 42.4123 84.8619 44.1697 84.1841C47.3169 82.9823 48.9608 80.7466 51.1781 75.6088C53.1655 71.0078 53.7135 69.9341 55.2679 68.362C60.0447 63.5689 67.7913 63.5689 72.5696 68.362C77.3464 73.1552 77.3464 80.9246 72.5696 85.7178C66.1347 92.16 51.8908 95.1375 43.5082 88.3892ZM69.103 82.2418C71.9705 79.3667 71.9705 74.7145 69.103 71.838C66.2369 68.963 61.5992 68.963 58.7331 71.838C57.816 72.7579 57.3305 73.6921 55.6753 77.5511C53.8781 81.7177 52.2598 84.4917 49.98 86.4212C56.3241 88.6569 65.0643 86.3059 69.103 82.2418Z" fill="#2C3F75"/>
<path d="M74.6847 59.1473L81.7428 66.189C82.6981 67.1473 84.2398 67.1473 85.1952 66.189C86.1505 65.2306 86.1505 63.6714 85.1952 62.713L78.1371 55.6713C77.1817 54.713 75.6273 54.7258 74.6719 55.6841C73.7151 56.6425 73.7279 58.1889 74.6847 59.1473Z" fill="#2C3F75"/>
</svg>
