<svg width="486" height="521" viewBox="0 0 486 521" fill="none" xmlns="http://www.w3.org/2000/svg">
<path d="M486 208.183C421.322 208.183 373.705 210.824 339.244 214.906C351.307 231.43 365.898 252.989 375.865 275.41C390.94 309.319 407.073 373.332 360.833 432.229C324.489 478.523 266.446 496.338 218.162 505.665C164.315 516.067 92.7312 521 0 521V434.974H7.61737C95.7874 434.974 159.594 430.214 204.719 421.498C248.624 413.016 279.869 399.916 296.496 378.738C315.291 354.798 310.556 327.898 301.121 306.673C292.136 286.464 276.542 265.732 262.969 247.686L262.014 246.416C247.231 226.759 234.779 209.995 228.139 195.058C221.738 180.66 223.373 174.313 226.951 169.756C232.697 162.437 249.297 151.789 291.448 143.646C332.379 135.74 392.837 131 479.878 131H486V208.183Z" fill="#6287F2"/>
<path d="M486 85.524H479.878C391.708 85.524 327.901 90.2758 282.777 98.9783C238.872 107.446 207.626 120.524 190.999 141.668C172.204 165.569 176.939 192.425 186.375 213.614C195.359 233.79 210.953 254.489 224.527 272.505L225.482 273.773C240.264 293.398 252.716 310.134 259.357 325.047C265.758 339.421 264.122 345.758 260.544 350.308C254.798 357.615 238.198 368.245 196.048 376.374C155.116 384.268 94.6582 389 7.61737 389H0V312.305C64.6779 312.305 112.295 309.668 146.756 305.593C134.693 289.096 120.102 267.572 110.135 245.188C95.0601 211.335 78.927 147.427 125.167 88.6258C161.511 42.4077 219.554 24.6218 267.838 15.3101C321.685 4.92516 393.269 0 486 0V85.524Z" fill="#6287F2"/>
</svg>
