<svg width="115" height="169" viewBox="0 0 115 169" fill="none" xmlns="http://www.w3.org/2000/svg">
<path d="M44.8432 145.706H62.3553C63.5644 145.706 64.5452 144.725 64.5452 143.515C64.5452 142.307 63.5644 141.325 62.3553 141.325H44.8432C43.6353 141.325 42.6545 142.307 42.6545 143.515C42.6545 144.725 43.6353 145.706 44.8432 145.706Z" fill="#2C3F75"/>
<path d="M47.0332 25.2439C47.0332 25.3874 47.0182 25.5298 46.9908 25.6709C46.9621 25.8119 46.9209 25.9493 46.866 26.0816C46.8111 26.2152 46.7437 26.3413 46.6638 26.4599C46.584 26.5798 46.4929 26.6909 46.3918 26.792C46.2895 26.8944 46.1797 26.9843 46.0599 27.0642C45.9401 27.1441 45.814 27.2115 45.6818 27.2677C45.5483 27.3227 45.411 27.3639 45.2712 27.3913C45.1302 27.42 44.9867 27.4338 44.8432 27.4338C44.6997 27.4338 44.5575 27.42 44.4165 27.3913C44.2755 27.3639 44.1382 27.3227 44.0059 27.2677C43.8737 27.2115 43.7464 27.1441 43.6278 27.0642C43.5081 26.9843 43.397 26.8944 43.2959 26.792C43.1936 26.6909 43.1038 26.5798 43.0239 26.4599C42.944 26.3413 42.8767 26.2152 42.8218 26.0816C42.7656 25.9493 42.7244 25.8119 42.697 25.6709C42.6683 25.5298 42.6545 25.3874 42.6545 25.2439C42.6545 25.1003 42.6683 24.958 42.697 24.8169C42.7244 24.6758 42.7656 24.5384 42.8218 24.4061C42.8767 24.2725 42.944 24.1464 43.0239 24.0266C43.1038 23.9067 43.1936 23.7968 43.2959 23.6944C43.397 23.5933 43.5081 23.5022 43.6278 23.4223C43.7464 23.3424 43.8737 23.2749 44.0059 23.22C44.1382 23.1651 44.2755 23.1239 44.4165 23.0952C44.5575 23.0677 44.6997 23.054 44.8432 23.054C44.9867 23.054 45.1302 23.0677 45.2712 23.0952C45.411 23.1239 45.5483 23.1651 45.6818 23.22C45.814 23.2749 45.9401 23.3424 46.0599 23.4223C46.1797 23.5022 46.2895 23.5933 46.3918 23.6944C46.4929 23.7968 46.584 23.9067 46.6638 24.0266C46.7437 24.1464 46.8111 24.2725 46.866 24.4061C46.9209 24.5384 46.9621 24.6758 46.9908 24.8169C47.0182 24.958 47.0332 25.1003 47.0332 25.2439Z" fill="#2C3F75"/>
<path d="M55.7892 25.2439C55.7892 25.3874 55.7742 25.5298 55.7468 25.6709C55.7181 25.8119 55.6769 25.9493 55.622 26.0816C55.5671 26.2152 55.4997 26.3413 55.4199 26.4599C55.34 26.5798 55.2489 26.6909 55.1478 26.792C55.0455 26.8944 54.9357 26.9843 54.8159 27.0642C54.6961 27.1441 54.5701 27.2115 54.4378 27.2677C54.3043 27.3227 54.167 27.3639 54.0273 27.3913C53.8863 27.42 53.7428 27.4338 53.5993 27.4338C53.4558 27.4338 53.3135 27.42 53.1725 27.3913C53.0315 27.3639 52.8943 27.3227 52.762 27.2677C52.6297 27.2115 52.5024 27.1441 52.3839 27.0642C52.2641 26.9843 52.153 26.8944 52.052 26.792C51.9496 26.6909 51.8598 26.5798 51.7799 26.4599C51.7001 26.3413 51.6327 26.2152 51.5778 26.0816C51.5216 25.9493 51.4805 25.8119 51.453 25.6709C51.4243 25.5298 51.4106 25.3874 51.4106 25.2439C51.4106 25.1003 51.4243 24.958 51.453 24.8169C51.4805 24.6758 51.5216 24.5384 51.5778 24.4061C51.6327 24.2725 51.7001 24.1464 51.7799 24.0266C51.8598 23.9067 51.9496 23.7968 52.052 23.6944C52.153 23.5933 52.2641 23.5022 52.3839 23.4223C52.5024 23.3424 52.6297 23.2749 52.762 23.22C52.8943 23.1651 53.0315 23.1239 53.1725 23.0952C53.3135 23.0677 53.4558 23.054 53.5993 23.054C53.7428 23.054 53.8863 23.0677 54.0273 23.0952C54.167 23.1239 54.3043 23.1651 54.4378 23.22C54.5701 23.2749 54.6961 23.3424 54.8159 23.4223C54.9357 23.5022 55.0455 23.5933 55.1478 23.6944C55.2489 23.7968 55.34 23.9067 55.4199 24.0266C55.4997 24.1464 55.5671 24.2725 55.622 24.4061C55.6769 24.5384 55.7181 24.6758 55.7468 24.8169C55.7742 24.958 55.7892 25.1003 55.7892 25.2439Z" fill="#2C3F75"/>
<path d="M64.5452 25.2439C64.5452 25.3874 64.5303 25.5298 64.5028 25.6709C64.4741 25.8119 64.4329 25.9493 64.378 26.0816C64.3231 26.2152 64.2557 26.3413 64.1759 26.4599C64.096 26.5798 64.0049 26.6909 63.9038 26.792C63.8015 26.8944 63.6917 26.9843 63.5719 27.0642C63.4521 27.1441 63.3261 27.2115 63.1938 27.2677C63.0603 27.3227 62.9231 27.3639 62.7833 27.3913C62.6423 27.42 62.4988 27.4338 62.3553 27.4338C62.2118 27.4338 62.0695 27.42 61.9285 27.3913C61.7875 27.3639 61.6503 27.3227 61.518 27.2677C61.3857 27.2115 61.2584 27.1441 61.1399 27.0642C61.0201 26.9843 60.9091 26.8944 60.808 26.792C60.7057 26.6909 60.6158 26.5798 60.536 26.4599C60.4561 26.3413 60.3887 26.2152 60.3338 26.0816C60.2777 25.9493 60.2365 25.8119 60.209 25.6709C60.1803 25.5298 60.1666 25.3874 60.1666 25.2439C60.1666 25.1003 60.1803 24.958 60.209 24.8169C60.2365 24.6758 60.2777 24.5384 60.3338 24.4061C60.3887 24.2725 60.4561 24.1464 60.536 24.0266C60.6158 23.9067 60.7057 23.7968 60.808 23.6944C60.9091 23.5933 61.0201 23.5022 61.1399 23.4223C61.2584 23.3424 61.3857 23.2749 61.518 23.22C61.6503 23.1651 61.7875 23.1239 61.9285 23.0952C62.0695 23.0677 62.2118 23.054 62.3553 23.054C62.4988 23.054 62.6423 23.0677 62.7833 23.0952C62.9231 23.1239 63.0603 23.1651 63.1938 23.22C63.3261 23.2749 63.4521 23.3424 63.5719 23.4223C63.6917 23.5022 63.8015 23.5933 63.9038 23.6944C64.0049 23.7968 64.096 23.9067 64.1759 24.0266C64.2557 24.1464 64.3231 24.2725 64.378 24.4061C64.4329 24.5384 64.4741 24.6758 64.5028 24.8169C64.5303 24.958 64.5452 25.1003 64.5452 25.2439Z" fill="#2C3F75"/>
<mask id="mask0_27_60" style="mask-type:luminance" maskUnits="userSpaceOnUse" x="14" y="14" width="80" height="141">
<path d="M14.1978 14.2906H93.1181V154.525H14.1978V14.2906Z" fill="white"/>
</mask>
<g mask="url(#mask0_27_60)">
<path d="M84.3221 14.2933H22.8777C18.0823 14.2933 14.1978 18.2149 14.1978 23.0542V145.707C14.1978 150.545 18.0823 154.467 22.8777 154.467H84.3221C89.115 154.467 93.002 150.545 93.002 145.707V132.565H18.5752V36.1949H88.6234V71.2384H93.002V23.0542C93.002 18.2149 89.115 14.2933 84.3221 14.2933ZM88.6234 136.946V145.707C88.6234 148.122 86.693 150.086 84.3221 150.086H22.8777C20.5056 150.086 18.5752 148.122 18.5752 145.707V136.946H88.6234ZM88.6234 31.8151H18.5752V23.0542C18.5752 20.6383 20.5056 18.6732 22.8777 18.6732H84.3221C86.693 18.6732 88.6234 20.6383 88.6234 23.0542V31.8151Z" fill="#2C3F75"/>
</g>
<mask id="mask1_27_60" style="mask-type:luminance" maskUnits="userSpaceOnUse" x="49" y="75" width="53" height="54">
<path d="M49.0347 75.4307H101.646V128.488H49.0347V75.4307Z" fill="white"/>
</mask>
<g mask="url(#mask1_27_60)">
<path d="M101.758 84.38C101.758 79.5407 97.8373 75.6191 93.002 75.6191H57.9779C53.1426 75.6191 49.2219 79.5407 49.2219 84.38V119.424C49.2219 124.262 53.1426 128.184 57.9779 128.184H93.002C97.8373 128.184 101.758 124.262 101.758 119.424V84.38ZM97.3794 119.424C97.3794 121.839 95.4166 123.803 93.002 123.803H57.9779C55.5634 123.803 53.5993 121.839 53.5993 119.424V84.38C53.5993 81.9641 55.5634 79.999 57.9779 79.999H93.002C95.4166 79.999 97.3794 81.9641 97.3794 84.38V119.424Z" fill="#2C3F75"/>
</g>
<path d="M71.2661 71.2381C76.0153 71.2381 79.8674 67.384 79.8674 62.6308V49.1817C79.8674 44.4299 76.0153 40.5757 71.2661 40.5757H57.8232C53.074 40.5757 49.2219 44.4299 49.2219 49.1817V62.6308C49.2219 67.384 53.074 71.2381 57.8232 71.2381H71.2661ZM53.5993 62.6308V49.1817C53.5993 46.852 55.4948 44.9555 57.8232 44.9555H71.2661C73.5945 44.9555 75.49 46.852 75.49 49.1817V62.6308C75.49 64.9618 73.5945 66.8583 71.2661 66.8583H57.8232C55.4948 66.8583 53.5993 64.9618 53.5993 62.6308Z" fill="#2C3F75"/>
<path d="M29.0969 75.6193C25.7053 75.6193 22.9539 78.371 22.9539 81.767V91.3731C22.9539 94.7679 25.7053 97.5208 29.0969 97.5208H38.7002C42.0918 97.5208 44.8433 94.7679 44.8433 91.3731V81.767C44.8433 78.371 42.0918 75.6193 38.7002 75.6193H29.0969ZM40.4659 81.767V91.3731C40.4659 92.347 39.6735 93.141 38.7002 93.141H29.0969C28.1236 93.141 27.3312 92.347 27.3312 91.3731V81.767C27.3312 80.7931 28.1236 79.9991 29.0969 79.9991H38.7002C39.6735 79.9991 40.4659 80.7931 40.4659 81.767Z" fill="#2C3F75"/>
<path d="M89.9847 91.1135C85.7596 92.8427 81.9 95.6693 79.0113 97.9404C75.0095 101.085 71.5493 104.603 69.4567 106.871C67.0571 102.61 65.1417 100.173 61.5654 97.2C60.6345 96.4284 59.2557 96.5558 58.4833 97.4847C57.7109 98.4148 57.8381 99.797 58.7678 100.569C62.5425 103.706 64.0823 105.983 67.0871 111.684C67.4277 112.331 68.0691 112.764 68.7941 112.84C68.8715 112.848 68.9476 112.853 69.0237 112.853C69.6688 112.853 70.2865 112.566 70.7058 112.065C70.7532 112.005 75.6609 106.144 81.7154 101.385C84.3807 99.2913 87.9171 96.6919 91.6406 95.1687C92.7599 94.7092 93.2965 93.432 92.8398 92.3121C92.3818 91.1934 91.1028 90.659 89.9847 91.1135Z" fill="#2C3F75"/>
</svg>
