<svg width="157" height="146" viewBox="0 0 157 146" fill="none" xmlns="http://www.w3.org/2000/svg">
<mask id="mask0_27_59" style="mask-type:luminance" maskUnits="userSpaceOnUse" x="0" y="0" width="157" height="146">
<path d="M0 0H156.06V146H0V0Z" fill="white"/>
</mask>
<g mask="url(#mask0_27_59)">
<path fill-rule="evenodd" clip-rule="evenodd" d="M87.1765 134.278C87.1765 135.584 86.1179 136.643 84.812 136.643H71.2924C69.9865 136.643 68.9279 135.584 68.9279 134.278C68.9279 132.974 69.9865 131.912 71.2924 131.912H84.812C86.1179 131.912 87.1765 132.972 87.1765 134.278ZM99.1444 138.501V66.3982C99.1444 64.8988 97.9245 63.6789 96.4265 63.6789H59.6793C58.1826 63.6789 56.96 64.8988 56.96 66.3982V138.501C56.96 140.004 58.1826 141.22 59.6793 141.22H96.4265C97.9245 141.22 99.1444 140.004 99.1444 138.501ZM96.4265 58.9485H59.6793C55.5736 58.9485 52.2296 62.2911 52.2296 66.3982V138.501C52.2296 142.612 55.5736 145.953 59.6793 145.953H96.4265C100.531 145.953 103.876 142.612 103.876 138.501V66.3982C103.876 62.2911 100.532 58.9485 96.4265 58.9485ZM64.2592 19.2993H67.9391V31.6984H64.2592V19.2993ZM76.661 19.2993C77.7721 19.2993 78.73 18.5268 78.9718 17.4426L80.0197 12.68C80.2804 11.5017 82.0726 11.8954 81.812 13.0736L81.0744 16.4229C80.7506 17.89 81.8805 19.2993 83.3838 19.2993H85.6436C89.0655 19.2993 91.8452 22.0817 91.8452 25.5009C91.8452 28.9201 89.0655 31.6984 85.6436 31.6984H72.6722V19.2993H76.661ZM63.4343 36.4289H85.6436C91.6719 36.4289 96.5769 31.5292 96.5769 25.5009C96.5769 19.6997 92.0359 14.9411 86.3234 14.5877L86.4336 14.092C87.1053 11.0516 85.1761 8.02879 82.1331 7.35705C79.0914 6.68933 76.0712 8.61724 75.4008 11.6576L74.7586 14.5689H63.4343C61.2834 14.5689 59.5288 16.3181 59.5288 18.4744V32.5287C59.5288 34.6796 61.2821 36.4289 63.4343 36.4289ZM48.1037 10.2375V33.4208C48.1037 36.4168 50.5395 38.8512 53.5355 38.8512H68.3851C71.0949 38.8512 73.4514 40.2954 74.6888 42.703L78.0529 49.2673L81.4156 42.707C82.6557 40.2954 85.0095 38.8512 87.7193 38.8512H102.572C105.568 38.8512 108.002 36.4181 108.002 33.4208V10.2375C108.002 7.2415 105.568 4.80575 102.572 4.80575H53.5355C50.5395 4.80575 48.1037 7.2415 48.1037 10.2375ZM53.5355 43.5843H68.3851C69.3121 43.5843 70.0564 44.0384 70.4783 44.8633L75.949 55.5306C76.8263 57.2449 79.2795 57.2423 80.1581 55.5306L85.6261 44.8633C86.0493 44.0384 86.7923 43.5843 87.7193 43.5843H102.572C108.175 43.5843 112.732 39.0245 112.732 33.4208V10.2375C112.732 4.63244 108.175 0.0753174 102.572 0.0753174H53.5355C47.9304 0.0753174 43.3733 4.63244 43.3733 10.2375V33.4208C43.3733 39.0245 47.9304 43.5843 53.5355 43.5843ZM136.108 98.5318C134.948 98.5318 134.001 97.6209 133.935 96.4789H138.282C138.216 97.6209 137.265 98.5318 136.108 98.5318ZM129.651 86.0185C129.651 82.4583 132.548 79.5644 136.109 79.5644C139.669 79.5644 142.566 82.4583 142.566 86.0185V91.7485H129.651V86.0185ZM138.472 75.0879V73.2271C138.472 71.9199 137.414 70.8599 136.109 70.8599C134.803 70.8599 133.742 71.9199 133.742 73.2271V75.0879C128.704 76.1747 124.921 80.6647 124.921 86.0185V94.1131C124.921 95.4189 125.978 96.4789 127.288 96.4789H129.201C129.267 100.233 132.339 103.262 136.109 103.262C139.875 103.262 142.946 100.233 143.016 96.4789H144.931C146.236 96.4789 147.296 95.4189 147.296 94.1131V86.0185C147.296 80.6634 143.511 76.1747 138.472 75.0879ZM151.387 103.117V71.0063C151.387 69.511 150.173 68.2965 148.678 68.2965H123.539C122.044 68.2965 120.83 69.511 120.83 71.0063V81.1551C120.83 83.3356 119.514 85.2541 117.483 86.0427L114.85 87.0637L117.483 88.0861C119.514 88.8748 120.83 90.7879 120.83 92.9684V103.118C120.83 104.612 122.044 105.831 123.539 105.831H148.678C150.173 105.831 151.387 104.612 151.387 103.117ZM148.678 63.5647H123.539C119.435 63.5647 116.098 66.902 116.098 71.005V81.1537C116.098 81.3902 115.992 81.5433 115.774 81.6293L107.453 84.8564C105.441 85.6356 105.448 88.4905 107.453 89.2684L115.774 92.4955C115.992 92.5788 116.098 92.7346 116.098 92.9684V103.117C116.098 107.222 119.435 110.561 123.539 110.561H148.678C152.781 110.561 156.118 107.222 156.118 103.117V71.005C156.118 66.902 152.781 63.5647 148.678 63.5647ZM19.9979 95.028C15.6826 92.6715 11.0838 87.2209 11.0838 82.8962C11.0838 79.1345 15.7739 77.4121 18.2177 80.2119C19.1568 81.2854 20.8349 81.2894 21.7767 80.2119C24.2205 77.4148 28.9119 79.1291 28.9119 82.8962C28.9119 87.2209 24.3172 92.6715 19.9979 95.028ZM24.8385 74.0937C23.1 74.0937 21.422 74.6082 19.9979 75.5446C14.1846 71.717 6.35202 75.8792 6.35202 82.8962C6.35202 89.6755 12.915 97.1252 19.0413 99.8283C19.6472 100.097 20.3472 100.097 20.9531 99.8283C27.0808 97.1238 33.6424 89.6742 33.6424 82.8962C33.6424 78.0422 29.6925 74.0937 24.8385 74.0937ZM38.6227 88.0861L41.256 87.0637L38.6227 86.0427C36.59 85.2527 35.2774 83.3356 35.2774 81.1537V71.005C35.2774 69.5097 34.0616 68.2965 32.5662 68.2965H7.4295C5.9342 68.2965 4.71834 69.5097 4.71834 71.005V103.117C4.71834 104.612 5.9342 105.831 7.4295 105.831H32.5662C34.0616 105.831 35.2774 104.612 35.2774 103.117V92.9684C35.2774 90.7879 36.59 88.8721 38.6227 88.0861ZM48.6519 84.8564L40.333 81.6293C40.1153 81.5433 40.0079 81.3902 40.0079 81.1537V71.005C40.0079 66.902 36.6706 63.5647 32.5662 63.5647H7.4295C3.32513 63.5647 -0.0121002 66.902 -0.0121002 71.005V103.117C-0.0121002 107.222 3.32513 110.561 7.4295 110.561H32.5662C36.6706 110.561 40.0079 107.222 40.0079 103.117V92.9684C40.0079 92.7346 40.1153 92.5801 40.333 92.4955L48.6519 89.2684C50.6577 88.4892 50.6604 85.6329 48.6519 84.8564Z" fill="#2C3F75"/>
</g>
</svg>
