<svg width="243" height="71" viewBox="0 0 243 71" fill="none" xmlns="http://www.w3.org/2000/svg">
<path d="M65.9888 28.267C57.2069 28.267 50.7415 28.6256 46.0624 29.1798C47.7003 31.4235 49.6814 34.3507 51.0348 37.395C53.0816 41.9991 55.2722 50.6908 48.9938 58.6878C44.0589 64.9736 36.1779 67.3925 29.622 68.6589C22.3106 70.0713 12.591 70.7411 0 70.7411V59.0605H1.03428C13.006 59.0605 21.6697 58.4143 27.7966 57.2307C33.758 56.0791 38.0005 54.3004 40.2581 51.4248C42.8101 48.1743 42.1672 44.5218 40.886 41.6399C39.6661 38.896 37.5488 36.081 35.7057 33.6307L35.5761 33.4583C33.569 30.7892 31.8782 28.513 30.9766 26.4849C30.1075 24.53 30.3295 23.6682 30.8153 23.0493C31.5955 22.0556 33.8495 20.6098 39.5727 19.5042C45.1303 18.4307 53.3393 17.7871 65.1576 17.7871H65.9888V28.267Z" fill="white"/>
<path d="M65.9888 11.6124H65.1576C53.1859 11.6124 44.5222 12.2576 38.3953 13.4392C32.4339 14.5889 28.1914 16.3647 25.9338 19.2356C23.3818 22.4809 24.0247 26.1274 25.3059 29.0045C26.5258 31.744 28.6431 34.5544 30.4861 37.0006L30.6158 37.1727C32.6229 39.8374 34.3137 42.1099 35.2153 44.1347C36.0844 46.0864 35.8624 46.9468 35.3766 47.5646C34.5964 48.5568 32.3424 50.0002 26.6192 51.1039C21.0616 52.1757 12.8526 52.8182 1.03428 52.8182H0V42.4046C8.78193 42.4046 15.2473 42.0466 19.9265 41.4932C18.2886 39.2533 16.3074 36.3308 14.9541 33.2915C12.9072 28.6949 10.7167 20.0175 16.9951 12.0336C21.9299 5.7581 29.8109 3.34314 36.3669 2.07879C43.6783 0.668737 53.3978 0 65.9888 0V11.6124Z" fill="white"/>
<path d="M83.6077 60.0316C78.1626 60.0316 74.001 58.4953 71.1228 55.4227C68.2447 52.3112 66.8057 48.1302 66.8057 42.8795C66.8057 39.418 67.428 36.4232 68.6726 33.8951C69.9171 31.3281 71.784 29.3445 74.2732 27.9444C76.7624 26.5053 79.8739 25.7858 83.6077 25.7858C89.0528 25.7858 93.195 27.3415 96.0342 30.453C98.8734 33.5256 100.293 37.6678 100.293 42.8795C100.293 46.2633 99.6513 49.2581 98.3678 51.864C97.1232 54.4309 95.2563 56.434 92.7671 57.873C90.3168 59.3121 87.2637 60.0316 83.6077 60.0316ZM83.491 52.1557C85.4746 52.1557 87.1081 51.7473 88.3916 50.9305C89.714 50.0748 90.6863 48.9469 91.3086 47.5468C91.9698 46.1077 92.3004 44.552 92.3004 42.8795C92.3004 41.1682 91.9698 39.593 91.3086 38.154C90.6863 36.7149 89.714 35.5675 88.3916 34.7119C87.1081 33.8562 85.4746 33.4284 83.491 33.4284C80.6518 33.4284 78.4737 34.3229 76.9569 36.112C75.4789 37.9011 74.74 40.157 74.74 42.8795C74.74 44.5131 75.0511 46.0494 75.6734 47.4884C76.3346 48.8886 77.3069 50.0165 78.5904 50.8722C79.8739 51.7278 81.5074 52.1557 83.491 52.1557ZM105.61 59.2148V26.3692H113.778V59.2148H105.61ZM105.61 59.2148V52.2723H127.955V59.2148H105.61ZM148.82 26.3692H157.455L153.138 36.6371L150.396 59.2148H137.327L130.852 26.3692H139.486L143.803 55.8894L148.82 26.3692ZM166.673 26.3692H175.307L169.24 59.2148H156.23L153.138 36.6371L148.704 26.3692H157.455L162.764 55.8894L166.673 26.3692ZM180.516 59.2148V26.3692H205.369V33.3117H188.509V39.3208H201.052V45.8549H188.509V52.7391H206.011V59.2148H180.516ZM224.589 59.7982C222.722 59.7982 220.894 59.5843 219.105 59.1565C217.316 58.7287 215.701 58.048 214.262 57.1146C212.823 56.1422 211.657 54.8977 210.762 53.3808C209.906 51.864 209.479 50.036 209.479 47.8968H217.646C217.646 48.0913 217.685 48.3635 217.763 48.7136C217.88 49.0636 218.093 49.4525 218.405 49.8804C218.716 50.3082 219.144 50.7166 219.688 51.1055C220.233 51.4945 220.952 51.8251 221.847 52.0973C222.78 52.3307 223.908 52.4474 225.23 52.4474C225.775 52.4474 226.339 52.4279 226.922 52.389C227.545 52.3112 228.109 52.1945 228.614 52.039C229.12 51.8445 229.528 51.5722 229.839 51.2222C230.15 50.8722 230.306 50.4054 230.306 49.822C230.306 49.0053 229.917 48.3635 229.139 47.8968C228.4 47.4301 227.408 47.0606 226.164 46.7883C224.958 46.4772 223.616 46.166 222.138 45.8549C220.699 45.5437 219.26 45.1548 217.821 44.6881C216.382 44.2214 215.06 43.5991 213.854 42.8212C212.687 42.0044 211.773 40.9737 211.112 39.7291C210.49 38.4457 210.237 36.851 210.354 34.9452C210.509 33.0394 211.17 31.4059 212.337 30.0446C213.504 28.6834 215.157 27.6332 217.296 26.8943C219.435 26.1553 222.002 25.7858 224.997 25.7858C227.408 25.7858 229.664 26.2136 231.765 27.0693C233.904 27.9249 235.634 29.2279 236.957 30.9781C238.318 32.7283 238.999 34.9452 238.999 37.6289H231.123C231.123 36.7343 230.889 36.0148 230.423 35.4703C229.956 34.8869 229.353 34.4591 228.614 34.1868C227.875 33.8757 227.097 33.6812 226.281 33.6034C225.464 33.4867 224.725 33.4284 224.064 33.4284C222.625 33.4284 221.419 33.6034 220.447 33.9534C219.513 34.3035 219.046 34.9841 219.046 35.9954C219.046 36.8899 219.435 37.59 220.213 38.0956C220.991 38.5623 222.002 38.9513 223.247 39.2624C224.491 39.5347 225.853 39.8264 227.331 40.1375C228.848 40.4098 230.345 40.7598 231.823 41.1877C233.301 41.6155 234.623 42.2183 235.79 42.9962C236.996 43.7352 237.929 44.727 238.59 45.9716C239.29 47.2162 239.563 48.8108 239.407 50.7555C239.29 52.6613 238.59 54.2948 237.307 55.6561C236.062 56.9785 234.351 58.0091 232.173 58.7481C230.034 59.4482 227.506 59.7982 224.589 59.7982Z" fill="white"/>
</svg>
