<svg width="195" height="57" viewBox="0 0 195 57" fill="none" xmlns="http://www.w3.org/2000/svg">
<path d="M52.9294 22.6728C45.8854 22.6728 40.6995 22.9604 36.9464 23.405C38.2602 25.2046 39.8492 27.5526 40.9348 29.9944C42.5765 33.6873 44.3336 40.6588 39.2977 47.0732C35.3395 52.115 29.0181 54.0552 23.7597 55.071C17.8952 56.2039 10.0992 56.7411 0 56.7411V47.3722H0.829593C10.432 47.3722 17.3811 46.8538 22.2955 45.9045C27.0771 44.9808 30.48 43.5541 32.2909 41.2476C34.3378 38.6404 33.8221 35.7107 32.7945 33.3992C31.816 31.1983 30.1177 28.9404 28.6394 26.975L28.5354 26.8368C26.9255 24.6959 25.5694 22.8702 24.8462 21.2434C24.1491 19.6754 24.3271 18.9841 24.7168 18.4878C25.3426 17.6907 27.1505 16.531 31.741 15.6443C36.1988 14.7832 42.7832 14.267 52.2626 14.267H52.9294V22.6728Z" fill="#2B3E75"/>
<path d="M52.9294 9.31426H52.2626C42.6602 9.31426 35.7111 9.83177 30.7967 10.7795C26.0151 11.7017 22.6122 13.1261 20.8013 15.4288C18.7544 18.0318 19.2701 20.9566 20.2977 23.2644C21.2762 25.4617 22.9745 27.7159 24.4528 29.678L24.5568 29.8161C26.1667 31.9534 27.5228 33.7761 28.2461 35.4003C28.9432 36.9657 28.7651 37.6558 28.3754 38.1514C27.7496 38.9471 25.9417 40.1049 21.3512 40.9902C16.8934 41.8499 10.309 42.3653 0.829593 42.3653H0V34.0125C7.04395 34.0125 12.2298 33.7254 15.9829 33.2815C14.6692 31.4849 13.0801 29.1408 11.9946 26.703C10.3528 23.0161 8.59579 16.056 13.6317 9.65207C17.5899 4.61854 23.9112 2.68152 29.1697 1.66739C35.0342 0.53639 42.8302 0 52.9294 0V9.31426Z" fill="#2B3E75"/>
<path d="M67.0613 47.6819C62.6939 47.6819 59.3558 46.4496 57.0473 43.9851C54.7388 41.4894 53.5845 38.1358 53.5845 33.9243C53.5845 31.1478 54.0836 28.7457 55.0819 26.7179C56.0802 24.6589 57.5776 23.0679 59.5742 21.9448C61.5708 20.7906 64.0665 20.2134 67.0613 20.2134C71.4288 20.2134 74.7513 21.4613 77.0286 23.957C79.3059 26.4215 80.4446 29.7439 80.4446 33.9243C80.4446 36.6383 79.9299 39.0405 78.9004 41.1306C77.9021 43.1896 76.4047 44.7962 74.4081 45.9505C72.4427 47.1047 69.9938 47.6819 67.0613 47.6819ZM66.9678 41.3646C68.5588 41.3646 69.869 41.037 70.8985 40.3819C71.9592 39.6956 72.7391 38.7909 73.2382 37.6678C73.7686 36.5136 74.0337 35.2657 74.0337 33.9243C74.0337 32.5516 73.7686 31.2882 73.2382 30.1339C72.7391 28.9796 71.9592 28.0593 70.8985 27.373C69.869 26.6867 68.5588 26.3435 66.9678 26.3435C64.6904 26.3435 62.9434 27.061 61.7268 28.4961C60.5413 29.9311 59.9486 31.7405 59.9486 33.9243C59.9486 35.2345 60.1981 36.4668 60.6973 37.621C61.2276 38.7441 62.0075 39.6488 63.037 40.3351C64.0665 41.0214 65.3767 41.3646 66.9678 41.3646ZM84.7095 47.0267V20.6814H91.2607V47.0267H84.7095ZM84.7095 47.0267V41.4582H102.632V47.0267H84.7095ZM119.368 20.6814H126.294L122.831 28.9172L120.632 47.0267H110.15L104.955 20.6814H111.881L115.344 44.3594L119.368 20.6814ZM133.687 20.6814H140.613L135.746 47.0267H125.311L122.831 28.9172L119.275 20.6814H126.294L130.552 44.3594L133.687 20.6814ZM144.791 47.0267V20.6814H164.726V26.2499H151.202V31.0698H161.263V36.3108H151.202V41.8325H165.24V47.0267H144.791ZM180.142 47.4947C178.644 47.4947 177.178 47.3231 175.743 46.9799C174.308 46.6368 173.013 46.0908 171.859 45.3421C170.705 44.5622 169.769 43.5639 169.051 42.3473C168.365 41.1306 168.022 39.6644 168.022 37.9486H174.573C174.573 38.1046 174.604 38.3229 174.667 38.6037C174.76 38.8845 174.932 39.1964 175.181 39.5396C175.431 39.8828 175.774 40.2103 176.211 40.5223C176.648 40.8343 177.225 41.0994 177.942 41.3178C178.691 41.505 179.596 41.5986 180.656 41.5986C181.093 41.5986 181.545 41.583 182.013 41.5518C182.512 41.4894 182.965 41.3958 183.37 41.271C183.776 41.115 184.103 40.8966 184.353 40.6159C184.603 40.3351 184.727 39.9608 184.727 39.4928C184.727 38.8377 184.415 38.3229 183.792 37.9486C183.199 37.5742 182.403 37.2779 181.405 37.0595C180.438 36.8099 179.362 36.5603 178.176 36.3108C177.022 36.0612 175.868 35.7492 174.713 35.3749C173.559 35.0005 172.498 34.5014 171.531 33.8775C170.595 33.2223 169.862 32.3956 169.332 31.3973C168.833 30.3679 168.63 29.0888 168.724 27.5602C168.848 26.0316 169.379 24.7213 170.315 23.6294C171.251 22.5376 172.576 21.6953 174.292 21.1025C176.008 20.5098 178.067 20.2134 180.469 20.2134C182.403 20.2134 184.213 20.5566 185.897 21.2429C187.613 21.9292 189.001 22.9743 190.062 24.3782C191.154 25.782 191.7 27.5602 191.7 29.7127H185.383C185.383 28.9952 185.195 28.4181 184.821 27.9813C184.447 27.5134 183.963 27.1702 183.37 26.9519C182.778 26.7023 182.154 26.5463 181.499 26.4839C180.843 26.3903 180.251 26.3435 179.72 26.3435C178.566 26.3435 177.599 26.4839 176.819 26.7647C176.07 27.0454 175.696 27.5914 175.696 28.4025C175.696 29.12 176.008 29.6815 176.632 30.0871C177.256 30.4615 178.067 30.7734 179.065 31.023C180.064 31.2414 181.155 31.4753 182.341 31.7249C183.558 31.9433 184.759 32.224 185.944 32.5672C187.13 32.9104 188.19 33.3939 189.126 34.0178C190.093 34.6106 190.842 35.4061 191.372 36.4044C191.934 37.4026 192.152 38.6817 192.027 40.2415C191.934 41.7701 191.372 43.0804 190.343 44.1723C189.344 45.2329 187.972 46.0596 186.225 46.6524C184.509 47.2139 182.481 47.4947 180.142 47.4947Z" fill="#2B3E75"/>
</svg>
