<svg width="233" height="184" viewBox="0 0 233 184" fill="none" xmlns="http://www.w3.org/2000/svg">
<path d="M63.7829 128.414H165.783C166.378 124.942 167.351 118.798 167.351 116.499C167.351 114.199 166.378 108.056 165.783 104.585H63.7829L62.3008 116.499L63.7829 128.414ZM168.771 131.981H60.6321L58.7073 116.499L60.6321 101.017H168.771L169.035 102.484C169.113 102.911 170.918 112.955 170.918 116.499C170.918 120.043 169.113 130.088 169.035 130.514L168.771 131.981Z" fill="#2C3F75"/>
<path d="M104.403 109.618L100.414 124.655H96.5372L94.4338 116.36L92.446 124.655H88.4031L84.4086 109.618H88.7515L90.8549 118.272L92.9067 109.618H96.5305L98.7632 118.289L100.87 109.618H104.403Z" fill="#2C3F75"/>
<path d="M124.705 109.618L120.716 124.655H116.838L114.735 116.36L112.748 124.655H108.706L104.711 109.618H109.054L111.157 118.272L113.209 109.618H116.834L119.065 118.289L121.171 109.618H124.705Z" fill="#2C3F75"/>
<path d="M145.007 109.618L141.019 124.655H137.141L135.038 116.36L133.051 124.655H129.008L125.013 109.618H129.357L131.459 118.272L133.512 109.618H137.135L139.367 118.289L141.474 109.618H145.007Z" fill="#2C3F75"/>
<path d="M75.9801 145.388C78.3015 144.138 83.3861 141.7 90.8123 139.766C90.0538 136.712 89.4571 133.505 89.0133 130.197H68.3629C70.0011 135.737 72.6001 140.869 75.9801 145.388Z" fill="#2C3F75"/>
<path d="M116.209 92.1932V102.8H135.464C134.88 98.5103 134.038 94.5259 132.982 90.9178C126.926 91.6684 121.317 92.0561 116.209 92.1932Z" fill="#2C3F75"/>
<path d="M111.873 92.2516C105.833 92.2516 100.606 91.9078 96.2979 91.4426C96.1136 91.4224 95.935 91.401 95.7518 91.3808C94.7585 94.8664 93.9618 98.6913 93.4034 102.8H112.662V92.2494C112.399 92.2494 112.133 92.2516 111.873 92.2516Z" fill="#2C3F75"/>
<path d="M76.1396 87.4008C72.6833 91.9707 70.027 97.1754 68.3629 102.8H89.011C89.5729 98.6103 90.3875 94.5899 91.4494 90.8268C83.6097 89.6807 78.406 88.1525 76.1396 87.4008Z" fill="#2C3F75"/>
<path d="M95.008 138.791C95.6338 138.662 96.2698 138.536 96.9227 138.417C102.054 137.481 107.321 137.005 112.662 136.993V130.197H93.4045C93.8169 133.222 94.3529 136.098 95.008 138.791Z" fill="#2C3F75"/>
<path d="M95.3248 152.574C93.9427 149.705 92.7472 146.557 91.746 143.195C85.2625 144.887 80.6286 146.99 78.2577 148.206C84.6378 155.531 93.1831 160.919 102.886 163.369C100.068 160.737 97.5092 157.11 95.3248 152.574Z" fill="#2C3F75"/>
<path d="M133.545 152.574C131.31 157.217 128.683 160.905 125.786 163.549C135.71 161.213 144.462 155.81 150.987 148.398C146.126 146.416 141.443 144.887 136.966 143.726C135.999 146.889 134.855 149.856 133.545 152.574Z" fill="#2C3F75"/>
<path d="M95.9305 142.224C99.7441 155.15 106.216 163.361 112.662 164.651V140.562C106.931 140.569 101.913 141.123 97.7373 141.875C97.1215 141.985 96.5215 142.103 95.9305 142.224Z" fill="#2C3F75"/>
<path d="M116.209 140.627V164.651C122.569 163.378 128.955 155.367 132.787 142.735C126.827 141.454 121.274 140.82 116.209 140.627Z" fill="#2C3F75"/>
<path d="M116.209 68.3471V88.6425C120.996 88.5121 126.231 88.1582 131.877 87.4795C127.99 76.4576 122.088 69.5247 116.209 68.3471Z" fill="#2C3F75"/>
<path d="M95.3248 80.4241C97.5092 75.8879 100.068 72.2608 102.886 69.6303C93.3393 72.0394 84.9142 77.2958 78.5678 84.4411C81.205 85.2322 85.9412 86.4592 92.5089 87.393C93.3393 84.9299 94.2787 82.5961 95.3248 80.4241Z" fill="#2C3F75"/>
<path d="M96.8451 87.9323C101.193 88.3964 106.505 88.7312 112.662 88.7009V68.3471C106.702 69.5404 100.721 76.6486 96.8372 87.9323C96.8395 87.9323 96.8417 87.9323 96.8451 87.9323Z" fill="#2C3F75"/>
<path d="M116.209 137.054C118.193 137.126 120.187 137.257 122.185 137.455C126.017 137.834 129.873 138.452 133.738 139.295C134.448 136.457 135.029 133.412 135.466 130.197H116.209V137.054Z" fill="#2C3F75"/>
<path d="M137.282 90.3336C138.412 94.236 139.271 98.4272 139.856 102.8H161.052C159.373 97.1294 156.687 91.8865 153.191 87.2896C147.624 88.5942 142.314 89.5886 137.282 90.3336Z" fill="#2C3F75"/>
<path d="M133.545 80.4241C134.522 82.4523 135.407 84.6221 136.194 86.9076C140.78 86.2435 145.609 85.3648 150.659 84.2299C144.17 77.0082 135.545 71.745 125.786 69.4483C128.683 72.0923 131.31 75.7823 133.545 80.4241Z" fill="#2C3F75"/>
<path d="M137.925 140.3C142.147 141.402 146.376 142.783 150.592 144.429L146.018 132.119L158.567 136.781C159.549 134.664 160.381 132.465 161.053 130.197H139.861C139.39 133.701 138.745 137.086 137.925 140.3Z" fill="#2C3F75"/>
<mask id="mask0_27_14" style="mask-type:luminance" maskUnits="userSpaceOnUse" x="58" y="60" width="114" height="113">
<path d="M58.3286 60.1467H171.154V172.763H58.3286V60.1467Z" fill="white"/>
</mask>
<g mask="url(#mask0_27_14)">
<path d="M114.708 60.1467C83.6349 60.1467 58.3562 85.4255 58.3562 116.499C58.3562 147.572 83.6349 172.851 114.708 172.851C130.421 172.851 144.65 166.383 154.881 155.975L153.223 151.507C143.69 161.985 129.954 168.571 114.708 168.571C90.7364 168.571 70.5085 152.284 64.4778 130.197C63.2857 125.83 62.6362 121.24 62.6362 116.499C62.6362 111.758 63.2857 107.168 64.4778 102.8C70.5085 80.714 90.7364 64.4267 114.708 64.4267C138.68 64.4267 158.908 80.714 164.938 102.8C166.131 107.168 166.781 111.758 166.781 116.499C166.781 121.24 166.131 125.83 164.938 130.197C164.195 132.922 163.233 135.556 162.077 138.084L166.112 139.583C169.29 132.534 171.061 124.72 171.061 116.499C171.061 85.4255 145.782 60.1467 114.708 60.1467Z" fill="#2C3F75"/>
</g>
<mask id="mask1_27_14" style="mask-type:luminance" maskUnits="userSpaceOnUse" x="151" y="137" width="24" height="24">
<path d="M151.018 137.011H174.613V160.799H151.018V137.011Z" fill="white"/>
</mask>
<g mask="url(#mask1_27_14)">
<path d="M174.641 157.836L165.915 149.109L172.777 145.225L151.054 137.156L159.125 158.877L163.009 152.015L171.735 160.741L174.641 157.836Z" fill="#2C3F75"/>
</g>
</svg>
